<?xml version="1.0" encoding="utf-8"?>
<!-- Generator: Adobe Illustrator 25.0.0, SVG Export Plug-In . SVG Version: 6.00 Build 0)  -->
<svg version="1.1" id="light" xmlns="http://www.w3.org/2000/svg" xmlns:xlink="http://www.w3.org/1999/xlink" x="0px" y="0px"
	 viewBox="0 0 512 512" style="enable-background:new 0 0 512 512;" xml:space="preserve">
<style type="text/css">
	.st0{fill:#FBF7FF;}
</style>
<g>
	<path class="st0" d="M458.7,448H53.3C23.9,448,0,424.1,0,394.7V117.3C0,87.9,23.9,64,53.3,64h405.3c29.4,0,53.3,23.9,53.3,53.3
		v277.3C512,424.1,488.1,448,458.7,448z M53.3,85.3c-17.6,0-32,14.4-32,32v277.3c0,17.6,14.4,32,32,32h405.3c17.6,0,32-14.4,32-32
		V117.3c0-17.6-14.4-32-32-32H53.3z"/>
</g>
<g>
	<path class="st0" d="M160,256c-29.4,0-53.3-23.9-53.3-53.3s23.9-53.3,53.3-53.3s53.3,23.9,53.3,53.3S189.4,256,160,256z M160,170.7
		c-17.6,0-32,14.4-32,32s14.4,32,32,32s32-14.4,32-32S177.6,170.7,160,170.7z"/>
</g>
<g>
	<path class="st0" d="M245.3,362.7c-5.9,0-10.7-4.8-10.7-10.7v-21.3c0-17.6-14.4-32-32-32h-85.3c-17.6,0-32,14.4-32,32V352
		c0,5.9-4.8,10.7-10.7,10.7S64,357.9,64,352v-21.3c0-29.4,23.9-53.3,53.3-53.3h85.3c29.4,0,53.3,23.9,53.3,53.3V352
		C256,357.9,251.2,362.7,245.3,362.7z"/>
</g>
<g>
	<path class="st0" d="M437.3,192h-128c-5.9,0-10.7-4.8-10.7-10.7s4.8-10.7,10.7-10.7h128c5.9,0,10.7,4.8,10.7,10.7
		S443.2,192,437.3,192z"/>
</g>
<g>
	<path class="st0" d="M437.3,277.3h-128c-5.9,0-10.7-4.8-10.7-10.7s4.8-10.7,10.7-10.7h128c5.9,0,10.7,4.8,10.7,10.7
		S443.2,277.3,437.3,277.3z"/>
</g>
<g>
	<path class="st0" d="M437.3,362.7h-128c-5.9,0-10.7-4.8-10.7-10.7c0-5.9,4.8-10.7,10.7-10.7h128c5.9,0,10.7,4.8,10.7,10.7
		C448,357.9,443.2,362.7,437.3,362.7z"/>
</g>
</svg>
