<?xml version="1.0" encoding="utf-8"?>
<!-- Generator: Adobe Illustrator 25.0.0, SVG Export Plug-In . SVG Version: 6.00 Build 0)  -->
<svg version="1.1" id="light" xmlns="http://www.w3.org/2000/svg" xmlns:xlink="http://www.w3.org/1999/xlink" x="0px" y="0px"
	 viewBox="0 0 512 512" style="enable-background:new 0 0 512 512;" xml:space="preserve">
<style type="text/css">
	.st0{fill:#FBF7FF;}
</style>
<g>
	<path class="st0" d="M458.7,512H53.3C23.9,512,0,488.1,0,458.7V53.3C0,23.9,23.9,0,53.3,0h405.3C488.1,0,512,23.9,512,53.3v405.3
		C512,488.1,488.1,512,458.7,512z M53.3,21.3c-17.6,0-32,14.4-32,32v405.3c0,17.6,14.4,32,32,32h405.3c17.6,0,32-14.4,32-32V53.3
		c0-17.6-14.4-32-32-32H53.3z"/>
</g>
<g>
	<path class="st0" d="M394.6,132.8H117.4c-8.5,0-15.4-6.9-15.4-15.4s6.9-15.4,15.4-15.4h277.2c8.5,0,15.4,6.9,15.4,15.4
		S403.1,132.8,394.6,132.8z"/>
</g>
<g>
	<path class="st0" d="M394.6,271.4H117.4c-8.5,0-15.4-6.9-15.4-15.4c0-8.5,6.9-15.4,15.4-15.4h277.2c8.5,0,15.4,6.9,15.4,15.4
		C410,264.5,403.1,271.4,394.6,271.4z"/>
</g>
<g>
	<path class="st0" d="M394.6,410H117.4c-8.5,0-15.4-6.9-15.4-15.4c0-8.5,6.9-15.4,15.4-15.4h277.2c8.5,0,15.4,6.9,15.4,15.4
		C410,403.1,403.1,410,394.6,410z"/>
</g>
</svg>
