<?xml version="1.0" encoding="utf-8"?>
<!-- Generator: Adobe Illustrator 25.0.0, SVG Export Plug-In . SVG Version: 6.00 Build 0)  -->
<svg version="1.1" id="Layer_1" xmlns="http://www.w3.org/2000/svg" xmlns:xlink="http://www.w3.org/1999/xlink" x="0px" y="0px"
	 viewBox="0 0 512 512" style="enable-background:new 0 0 512 512;" xml:space="preserve">
<style type="text/css">
	.st0{fill:#FBF7FF;}
</style>
<path class="st0" d="M256,512C114.8,512,0,397.2,0,256S114.8,0,256,0s256,114.8,256,256S397.2,512,256,512z M256,36.6
	C135,36.6,36.6,135,36.6,256S135,475.4,256,475.4S475.4,377,475.4,256S377,36.6,256,36.6z"/>
<path class="st0" d="M347.4,365.7c-4.7,0-9.4-1.8-12.9-5.4L151.6,177.5c-7.1-7.1-7.1-18.7,0-25.9c7.1-7.1,18.7-7.1,25.9,0
	l182.9,182.9c7.1,7.1,7.1,18.7,0,25.9C356.8,363.9,352.1,365.7,347.4,365.7z"/>
<path class="st0" d="M164.6,365.7c-4.7,0-9.4-1.8-12.9-5.4c-7.1-7.1-7.1-18.7,0-25.9l182.9-182.9c7.1-7.1,18.7-7.1,25.9,0
	c7.1,7.1,7.1,18.7,0,25.9L177.5,360.4C173.9,363.9,169.2,365.7,164.6,365.7z"/>
</svg>
