<svg id="Layer_1" data-name="Layer 1" xmlns="http://www.w3.org/2000/svg" viewBox="0 0 368.53 133.77"><defs><style>.cls-1{fill:#f9f6fa;}</style></defs><path class="cls-1" d="M231.31,303.42H90.11a18.6,18.6,0,0,1-18.58-18.58V188.23a18.6,18.6,0,0,1,18.58-18.58h141.2a18.61,18.61,0,0,1,18.58,18.58v96.61A18.61,18.61,0,0,1,231.31,303.42ZM90.11,177.08A11.16,11.16,0,0,0,79,188.23v96.61A11.16,11.16,0,0,0,90.11,296h141.2a11.16,11.16,0,0,0,11.15-11.15V188.23a11.16,11.16,0,0,0-11.15-11.15Z" transform="translate(-71.53 -169.65)"/><path class="cls-1" d="M127.26,236.54A18.58,18.58,0,1,1,145.84,218,18.6,18.6,0,0,1,127.26,236.54Zm0-29.73A11.15,11.15,0,1,0,138.41,218,11.16,11.16,0,0,0,127.26,206.81Z" transform="translate(-71.53 -169.65)"/><path class="cls-1" d="M157,273.69a3.71,3.71,0,0,1-3.71-3.71v-7.43a11.17,11.17,0,0,0-11.15-11.15H112.4a11.16,11.16,0,0,0-11.15,11.15V270a3.72,3.72,0,0,1-7.43,0v-7.43A18.61,18.61,0,0,1,112.4,244h29.73a18.61,18.61,0,0,1,18.58,18.58V270A3.72,3.72,0,0,1,157,273.69Z" transform="translate(-71.53 -169.65)"/><path class="cls-1" d="M223.88,214.24H179.29a3.72,3.72,0,1,1,0-7.43h44.59a3.72,3.72,0,0,1,0,7.43Z" transform="translate(-71.53 -169.65)"/><path class="cls-1" d="M223.88,244H179.29a3.72,3.72,0,1,1,0-7.43h44.59a3.72,3.72,0,0,1,0,7.43Z" transform="translate(-71.53 -169.65)"/><path class="cls-1" d="M223.88,273.69H179.29a3.72,3.72,0,1,1,0-7.43h44.59a3.72,3.72,0,0,1,0,7.43Z" transform="translate(-71.53 -169.65)"/><path class="cls-1" d="M273.86,257.83a1.21,1.21,0,0,1-1.2-1.2,3.85,3.85,0,0,1,0-.65l14.88-38.82a2.42,2.42,0,0,1,.66-1,1.89,1.89,0,0,1,1.26-.36h4.08a2,2,0,0,1,1.24.36,2.36,2.36,0,0,1,.68,1L310.33,256a1.83,1.83,0,0,1,.13.65,1.25,1.25,0,0,1-1.21,1.2H306.2a1.33,1.33,0,0,1-1.05-.36,1.82,1.82,0,0,1-.45-.65l-3.3-8.52H281.71l-3.29,8.52a1.32,1.32,0,0,1-.42.65,1.48,1.48,0,0,1-1.08.36Zm9.6-14.69h16.2l-8.11-21.3Z" transform="translate(-71.53 -169.65)"/><path class="cls-1" d="M331.52,258.43a12.66,12.66,0,0,1-6-1.28,11.66,11.66,0,0,1-3.85-3.21v2.52a1.3,1.3,0,0,1-1.38,1.37h-2.75a1.3,1.3,0,0,1-1.38-1.37V216.62a1.33,1.33,0,0,1,.38-1,1.35,1.35,0,0,1,1-.39h2.88a1.33,1.33,0,0,1,1,.39,1.44,1.44,0,0,1,.35,1v13.8a11.9,11.9,0,0,1,9.73-4.38,12.87,12.87,0,0,1,5.73,1.17,10.82,10.82,0,0,1,3.9,3.21,15,15,0,0,1,2.31,4.62,20.44,20.44,0,0,1,.83,5.4c0,.64.07,1.24.07,1.8s0,1.16-.07,1.8a20.64,20.64,0,0,1-.83,5.46,14.42,14.42,0,0,1-2.31,4.58,10.87,10.87,0,0,1-3.9,3.19A13,13,0,0,1,331.52,258.43Zm-1.27-4.85a8,8,0,0,0,4.9-1.35,7.65,7.65,0,0,0,2.55-3.54,17,17,0,0,0,.9-4.71q0-1.74,0-3.48a17,17,0,0,0-.9-4.71,7.65,7.65,0,0,0-2.55-3.54,7.94,7.94,0,0,0-4.9-1.35,7.86,7.86,0,0,0-4.67,1.32,8.18,8.18,0,0,0-2.79,3.36,10.65,10.65,0,0,0-1,4.14c0,.64-.05,1.41-.05,2.31s0,1.67.05,2.31a13.62,13.62,0,0,0,1,4.35,8,8,0,0,0,2.7,3.51A7.68,7.68,0,0,0,330.25,253.58Z" transform="translate(-71.53 -169.65)"/><path class="cls-1" d="M364.57,258.43A15.34,15.34,0,0,1,357,256.7a11.71,11.71,0,0,1-4.68-4.83,16.62,16.62,0,0,1-1.8-7.05q-.06-1-.06-2.61t.06-2.55a16.26,16.26,0,0,1,1.83-7.08,12,12,0,0,1,4.71-4.8,17.29,17.29,0,0,1,15.12,0,12,12,0,0,1,4.71,4.8,16.26,16.26,0,0,1,1.83,7.08q.06,1,.06,2.55t-.06,2.61a16.62,16.62,0,0,1-1.8,7.05,11.71,11.71,0,0,1-4.68,4.83A15.34,15.34,0,0,1,364.57,258.43Zm0-4.61a7.75,7.75,0,0,0,5.94-2.37q2.22-2.37,2.4-6.93.06-.9.06-2.28t-.06-2.28q-.18-4.56-2.4-6.93a7.75,7.75,0,0,0-5.94-2.37,7.85,7.85,0,0,0-6,2.37q-2.25,2.37-2.37,6.93-.06.9-.06,2.28t.06,2.28q.12,4.56,2.37,6.93A7.85,7.85,0,0,0,364.57,253.82Z" transform="translate(-71.53 -169.65)"/><path class="cls-1" d="M397.87,258.43a11.82,11.82,0,0,1-6.51-1.7,10.83,10.83,0,0,1-4.05-4.77,16.91,16.91,0,0,1-1.38-7V228a1.33,1.33,0,0,1,1.38-1.38h3a1.33,1.33,0,0,1,1.38,1.38v16.62q0,8.94,7.8,8.94a7.85,7.85,0,0,0,6-2.37,9.16,9.16,0,0,0,2.25-6.57V228a1.33,1.33,0,0,1,1.38-1.38H412a1.32,1.32,0,0,1,1,.39,1.4,1.4,0,0,1,.36,1v28.44a1.4,1.4,0,0,1-.36,1,1.31,1.31,0,0,1-1,.38h-2.76a1.32,1.32,0,0,1-1.38-1.37v-2.64a12.4,12.4,0,0,1-3.93,3.35A12.71,12.71,0,0,1,397.87,258.43Z" transform="translate(-71.53 -169.65)"/><path class="cls-1" d="M434.53,257.83a10.22,10.22,0,0,1-5.46-1.29,7.37,7.37,0,0,1-3.06-3.66,14.81,14.81,0,0,1-1-5.6V231.44h-4.68a1.33,1.33,0,0,1-1.38-1.38v-2a1.33,1.33,0,0,1,1.38-1.38h4.68v-10a1.33,1.33,0,0,1,1.38-1.38h2.82a1.33,1.33,0,0,1,1.38,1.38v10h7.44a1.33,1.33,0,0,1,1.38,1.38v2a1.33,1.33,0,0,1-1.38,1.38h-7.44v15.42a8.64,8.64,0,0,0,1,4.43,3.63,3.63,0,0,0,3.42,1.63h3.66a1.33,1.33,0,0,1,1.38,1.37v2.17a1.32,1.32,0,0,1-1.38,1.37Z" transform="translate(-71.53 -169.65)"/></svg>