<svg id="Layer_1" data-name="Layer 1" xmlns="http://www.w3.org/2000/svg" viewBox="0 0 380.08 444.86"><defs><style>.cls-1{fill:#5f5fff;stroke:#322c4a;stroke-miterlimit:10;}</style></defs><path class="cls-1" d="M602.76,500.81c-27.68,24.66-65.83,39.91-107.94,39.91a169.63,169.63,0,0,1-48.74-7.09c-60.6-18.23-104.24-69.51-104.24-129.93,0-75.68,68.49-137,153-137,41.87,0,79.82,15.07,107.46,39.51l-54.1,48.45c-13.77-12.05-32.61-19.45-53.36-19.45-42.24,0-76.49,30.68-76.49,68.51s34.25,68.51,76.49,68.51l2,0,.87,0a8.38,8.38,0,0,0,.88,0c.3,0,.6,0,.88,0,.5,0,1,0,1.5-.09,1-.07,2-.16,3-.27l.72-.08.42,0,1.26-.16.84-.12c.89-.12,1.77-.27,2.66-.43l.23,0c.89-.17,1.77-.33,2.65-.54s1.88-.4,2.8-.64c0,0,0,0,0,0,1-.23,1.89-.48,2.81-.76.72-.2,1.42-.4,2.12-.65a1.59,1.59,0,0,0,.33-.1c.72-.23,1.43-.48,2.14-.72s1.15-.41,1.7-.62,1.37-.53,2-.81c.24-.09.48-.19.71-.3a6,6,0,0,0,.69-.3c.28-.11.57-.24.85-.37l.31-.14c.48-.2,1-.43,1.42-.66.65-.3,1.3-.62,1.94-1s1.16-.6,1.74-.91c.14-.08.29-.15.43-.24.39-.21.8-.43,1.2-.68a8.45,8.45,0,0,0,.81-.47l.55-.31a.65.65,0,0,1,.16-.09l1.13-.71c.37-.23.74-.46,1.09-.7.54-.34,1.08-.7,1.6-1.07l.24-.16c.43-.29.84-.58,1.25-.88l.24-.17c.34-.24.68-.5,1-.75l.58-.45c.34-.25.68-.53,1-.8s.76-.6,1.14-.92c.54-.45,1.07-.9,1.59-1.36l26.9,23.84c-20.54,18.54-49,30-80.46,30a126.86,126.86,0,0,1-17.12-1.16l-6.25,5.6a134.9,134.9,0,0,0,22.66,1.9c33.63,0,64-12.27,86-32.08Z" transform="translate(-223.43 -96.37)"/><path class="cls-1" d="M603,306.81c-.24-.21-.48-.43-.72-.62" transform="translate(-223.43 -96.37)"/><path class="cls-1" d="M526.68,466c-.67.28-1.35.54-2,.81" transform="translate(-223.43 -96.37)"/><path class="cls-1" d="M520.47,468.25c-.7.23-1.41.45-2.12.65-.92.27-1.86.52-2.81.76" transform="translate(-223.43 -96.37)"/><path class="cls-1" d="M515.5,469.68c-.92.22-1.85.44-2.8.64s-1.76.37-2.65.54" transform="translate(-223.43 -96.37)"/><path class="cls-1" d="M548.9,355.26l-.72-.62" transform="translate(-223.43 -96.37)"/><path class="cls-1" d="M530.66,464.23c-.47.23-.94.45-1.42.66" transform="translate(-223.43 -96.37)"/><path class="cls-1" d="M526.68,466c-.67.28-1.35.54-2,.81" transform="translate(-223.43 -96.37)"/><path class="cls-1" d="M520.47,468.25c-.7.23-1.41.45-2.12.65-.92.27-1.86.52-2.81.76" transform="translate(-223.43 -96.37)"/><path class="cls-1" d="M515.5,469.68c-.92.22-1.85.44-2.8.64s-1.76.37-2.65.54" transform="translate(-223.43 -96.37)"/><path class="cls-1" d="M548.9,355.26l-.72-.62" transform="translate(-223.43 -96.37)"/><path class="cls-1" d="M603,306.81" transform="translate(-223.43 -96.37)"/><path class="cls-1" d="M548.9,355.26l-.72-.62" transform="translate(-223.43 -96.37)"/><path class="cls-1" d="M548.9,355.26" transform="translate(-223.43 -96.37)"/><path class="cls-1" d="M603,306.81" transform="translate(-223.43 -96.37)"/><path class="cls-1" d="M548.38,452.61" transform="translate(-223.43 -96.37)"/><path class="cls-1" d="M602.76,500.81" transform="translate(-223.43 -96.37)"/><path class="cls-1" d="M580.1,480.73" transform="translate(-223.43 -96.37)"/><path class="cls-1" d="M471.45,510.91" transform="translate(-223.43 -96.37)"/><path class="cls-1" d="M446.08,533.63" transform="translate(-223.43 -96.37)"/><path class="cls-1" d="M418.33,558.48" transform="translate(-223.43 -96.37)"/><path class="cls-1" d="M518.35,468.9" transform="translate(-223.43 -96.37)"/><path class="cls-1" d="M477.7,505.31" transform="translate(-223.43 -96.37)"/><path class="cls-1" d="M548.18,354.64" transform="translate(-223.43 -96.37)"/><path class="cls-1" d="M602.28,306.19" transform="translate(-223.43 -96.37)"/><path class="cls-1" d="M477.38,191.65a94.63,94.63,0,0,1-67.26,90.71l-58.23-58.24h31.59a32,32,0,0,0,0-64.07H287.82L252.72,125h43.44l-12.29-11.41H241.31L224.63,96.87h158a94.67,94.67,0,0,1,94.78,94.78Z" transform="translate(-223.43 -96.37)"/><polygon class="cls-1" points="92.65 127.31 4.7 127.31 131.88 254.57 219.91 254.57 176.14 210.79 92.65 127.31"/></svg>